# Blender 4.0.1
# www.blender.org
mtllib kiy.mtl
o Cylinder.004
v -0.000437 1.261453 -0.879381
v -0.007198 1.261615 -0.882181
v -0.000439 1.254517 -0.875104
v 0.006328 1.261615 -0.882174
v 0.009630 1.254758 -0.879262
v 0.009133 1.262007 -0.888925
v 0.006334 1.262399 -0.895678
v 0.013804 1.255342 -0.889310
v 0.009639 1.255925 -0.899361
v 0.004989 0.093198 -0.956796
v 0.003408 0.093420 -0.960612
v -0.000414 0.093512 -0.962195
v -0.004236 0.093420 -0.960616
v -0.005821 0.093198 -0.956801
v -0.004240 0.092977 -0.952985
v -0.010503 1.254759 -0.879271
v -0.014668 1.255342 -0.889323
v -0.009997 1.262007 -0.888934
v -0.010494 1.255926 -0.899371
v -0.007192 1.262399 -0.895684
v -0.000425 1.256167 -0.903529
v -0.000428 1.262561 -0.898478
v -0.000419 0.092885 -0.951402
v 0.003404 0.092977 -0.952981
vn -0.3217 0.4970 0.8059
vn -0.0000 0.9983 0.0580
vn 0.3210 0.4970 0.8062
vn 0.7757 0.5234 0.3527
vn 0.7760 0.5606 -0.2890
vn -0.7760 0.5234 0.3519
vn -0.7757 0.5606 -0.2897
vn -0.3210 0.5870 -0.7432
vn 0.3217 0.5870 -0.7429
vn -0.0000 -0.9983 -0.0580
vn 0.3831 0.0466 -0.9225
vn -0.3822 0.0466 -0.9229
vn -0.9237 0.0152 -0.3829
vn -0.9240 -0.0292 0.3812
vn -0.3831 -0.0605 0.9217
vn 0.3822 -0.0606 0.9221
vn 0.9237 -0.0292 0.3821
vn 0.9240 0.0152 -0.3820
vt 0.083159 0.042321
vt 0.076331 0.043857
vt 0.076331 0.034498
vt 0.083159 0.036034
vt 0.080776 0.000086
vt 0.087064 0.000086
vt 0.091510 0.004532
vt 0.091510 0.010819
vt 0.087064 0.015265
vt 0.080776 0.015265
vt 0.076331 0.010819
vt 0.076331 0.004532
vt 0.083159 0.070913
vt 0.076331 0.072448
vt 0.076331 0.063090
vt 0.083159 0.064626
vt 0.083159 0.032791
vt 0.076331 0.034326
vt 0.076331 0.024968
vt 0.083159 0.026503
vt 0.076331 0.074156
vt 0.083159 0.072621
vt 0.083159 0.081979
vt 0.076331 0.080444
vt 0.076331 0.045565
vt 0.083159 0.044029
vt 0.083159 0.053387
vt 0.076331 0.051852
vt 0.083331 0.016973
vt 0.090159 0.015437
vt 0.090159 0.024796
vt 0.083331 0.023260
vt 0.083159 0.061382
vt 0.076331 0.062918
vt 0.076331 0.053560
vt 0.083159 0.055095
vt 0.076331 0.016973
vt 0.083159 0.015437
vt 0.083159 0.024796
vt 0.076331 0.023260
vt 0.076331 0.088217
vt 0.076331 0.084664
vt 0.078843 0.082151
vt 0.082396 0.082151
vt 0.084909 0.084664
vt 0.084909 0.088217
vt 0.082396 0.090729
vt 0.078843 0.090729
vt 0.060172 0.000086
vt 0.063725 0.000086
vt 0.066628 0.999913
vt 0.057270 0.999913
vt 0.022049 0.000086
vt 0.025602 0.000086
vt 0.028506 0.999914
vt 0.019147 0.999914
vt 0.050643 0.000086
vt 0.054196 0.000086
vt 0.057097 0.999913 
vt 0.047739 0.999913
vt 0.031580 0.000086
vt 0.035133 0.000086
vt 0.038036 0.999913
vt 0.028678 0.999913
vt 0.041111 0.000086
vt 0.044664 0.000086
vt 0.047567 0.999913
vt 0.038208 0.999913
vt 0.012519 0.000086
vt 0.016072 0.000086
vt 0.018975 0.999914
vt 0.009617 0.999914
vt 0.069703 0.000086
vt 0.073256 0.000086
vt 0.076158 0.999913
vt 0.066800 0.999913
vt 0.002989 0.000086
vt 0.006542 0.000086
vt 0.009444 0.999914
vt 0.000086 0.999914
s 1
usemtl Material.002
f 2/1/1 16/2/1 3/3/1 1/4/1
f 1/5/2 4/6/2 6/7/2 7/8/2 22/9/2 20/10/2 18/11/2 2/12/2
f 1/13/3 3/14/3 5/15/3 4/16/3
f 4/17/4 5/18/4 8/19/4 6/20/4
f 6/21/5 8/22/5 9/23/5 7/24/5
f 18/25/6 17/26/6 16/27/6 2/28/6
f 20/29/7 19/30/7 17/31/7 18/32/7
f 22/33/8 21/34/8 19/35/8 20/36/8
f 7/37/9 9/38/9 21/39/9 22/40/9
f 15/41/10 14/42/10 13/43/10 12/44/10 11/45/10 10/46/10 24/47/10 23/48/10
f 11/49/11 12/50/11 21/51/11 9/52/11
f 12/53/12 13/54/12 19/55/12 21/56/12
f 13/57/13 14/58/13 17/59/13 19/60/13
f 14/61/14 15/62/14 16/63/14 17/64/14
f 15/65/15 23/66/15 3/67/15 16/68/15
f 23/69/16 24/70/16 5/71/16 3/72/16
f 24/73/17 10/74/17 8/75/17 5/76/17
f 10/77/18 11/78/18 9/79/18 8/80/18
