# Blender 4.1.1
# www.blender.org
mtllib table_collider_holes.mtl
o Cylinder.003
v 0.000351 0.753181 0.404272
v 0.000351 0.753181 0.488426
v -0.029753 0.753181 0.476102
v -0.042077 0.753181 0.446419
v -0.029753 0.753181 0.416596
v 0.000351 0.889866 0.488426
v -0.029753 0.889866 0.476102
v -0.042077 0.889866 0.446419
v -0.834570 0.753182 0.386913
v -0.822246 0.753182 0.416666
v -0.834570 0.753182 0.446419
v -0.864323 0.753182 0.458743
v -0.894076 0.753182 0.446419
v -0.906400 0.753182 0.416666
v -0.894076 0.753182 0.386913
v -0.864323 0.753182 0.374589
v -0.864323 0.889866 0.458743
v -0.834570 0.889866 0.446419
v -0.894076 0.889866 0.446419
v -0.906400 0.889866 0.416666
v -0.894076 0.889866 0.386913
v -0.042077 0.841593 0.446419
v -0.029753 0.841593 0.476102
v 0.000351 0.841593 0.488426
v -0.834570 0.841593 0.446419
v -0.864323 0.841593 0.458743
v -0.906400 0.841593 0.416666
v -0.894076 0.841593 0.446419
v -0.822246 0.841593 0.416666
v -0.834570 0.841593 0.386913
v -0.864323 0.841593 0.374589
v -0.894076 0.841593 0.386913
v -0.029753 0.841593 0.416596
v 0.000351 0.841593 0.404272
v 0.030455 0.753181 0.476102
v 0.042779 0.753181 0.446419
v 0.030455 0.753181 0.416596
v 0.030455 0.889866 0.476102
v 0.042779 0.889866 0.446419
v 0.835273 0.753182 0.386913
v 0.822949 0.753182 0.416666
v 0.835273 0.753182 0.446419
v 0.865026 0.753182 0.458743
v 0.894778 0.753182 0.446419
v 0.907102 0.753182 0.416666
v 0.894778 0.753182 0.386913
v 0.865026 0.753182 0.374589
v 0.865026 0.889866 0.458743
v 0.835273 0.889866 0.446419
v 0.894778 0.889866 0.446419
v 0.907102 0.889866 0.416666
v 0.894778 0.889866 0.386913
v 0.042779 0.841593 0.446419
v 0.030455 0.841593 0.476102
v 0.835273 0.841593 0.446419
v 0.865026 0.841593 0.458743
v 0.907102 0.841593 0.416666
v 0.894778 0.841593 0.446419
v 0.822949 0.841593 0.416666
v 0.835273 0.841593 0.386913
v 0.865026 0.841593 0.374589
v 0.894778 0.841593 0.386913
v 0.030455 0.841593 0.416596
v 0.000351 0.753181 -0.426340
v 0.000351 0.753181 -0.510493
v -0.029753 0.753181 -0.498169
v -0.042077 0.753181 -0.468486
v -0.029753 0.753181 -0.438664
v 0.000351 0.889866 -0.510493
v -0.029753 0.889866 -0.498169
v -0.042077 0.889866 -0.468486
v -0.834570 0.753182 -0.408980
v -0.822246 0.753182 -0.438733
v -0.834570 0.753182 -0.468486
v -0.864323 0.753182 -0.480810
v -0.894076 0.753182 -0.468486
v -0.906400 0.753182 -0.438733
v -0.894076 0.753182 -0.408980
v -0.864323 0.753182 -0.396656
v -0.864323 0.889866 -0.480810
v -0.834570 0.889866 -0.468486
v -0.894076 0.889866 -0.468486
v -0.906400 0.889866 -0.438733
v -0.894076 0.889866 -0.408980
v -0.042077 0.841593 -0.468486
v -0.029753 0.841593 -0.498169
v 0.000351 0.841593 -0.510493
v -0.834570 0.841593 -0.468486
v -0.864323 0.841593 -0.480810
v -0.906400 0.841593 -0.438733
v -0.894076 0.841593 -0.468486
v -0.822246 0.841593 -0.438733
v -0.834570 0.841593 -0.408980
v -0.864323 0.841593 -0.396656
v -0.894076 0.841593 -0.408980
v -0.029753 0.841593 -0.438664
v 0.000351 0.841593 -0.426340
v 0.030455 0.753181 -0.498169
v 0.042779 0.753181 -0.468486
v 0.030455 0.753181 -0.438664
v 0.030455 0.889866 -0.498169
v 0.042779 0.889866 -0.468486
v 0.835273 0.753182 -0.408980
v 0.822949 0.753182 -0.438733
v 0.835273 0.753182 -0.468486
v 0.865026 0.753182 -0.480810
v 0.894778 0.753182 -0.468486
v 0.907102 0.753182 -0.438733
v 0.894778 0.753182 -0.408980
v 0.865026 0.753182 -0.396656
v 0.865026 0.889866 -0.480810
v 0.835273 0.889866 -0.468486
v 0.894778 0.889866 -0.468486
v 0.907102 0.889866 -0.438733
v 0.894778 0.889866 -0.408980
v 0.042779 0.841593 -0.468486
v 0.030455 0.841593 -0.498169
v 0.835273 0.841593 -0.468486
v 0.865026 0.841593 -0.480810
v 0.907102 0.841593 -0.438733
v 0.894778 0.841593 -0.468486
v 0.822949 0.841593 -0.438733
v 0.835273 0.841593 -0.408980
v 0.865026 0.841593 -0.396656
v 0.894778 0.841593 -0.408980
v 0.030455 0.841593 -0.438664
vn 0.9236 -0.0000 -0.3835
vn 0.3789 -0.0000 0.9255
vn 0.3789 -0.0000 -0.9255
vn -0.3827 -0.0000 0.9239
vn 0.9239 -0.0000 -0.3827
vn -0.3827 -0.0000 -0.9239
vn -0.9239 -0.0000 0.3827
vn 0.3827 -0.0000 -0.9239
vn 0.9239 -0.0000 0.3827
vn 0.3827 -0.0000 0.9239
vn 0.9242 -0.0000 0.3819
vn -0.9236 -0.0000 -0.3835
vn -0.3789 -0.0000 0.9255
vn -0.3789 -0.0000 -0.9255
vn -0.9239 -0.0000 -0.3827
vn -0.9242 -0.0000 0.3819
vn 0.9236 -0.0000 0.3835
vn 0.9242 -0.0000 -0.3819
vn -0.9236 -0.0000 0.3835
vn -0.9242 -0.0000 -0.3819
vt 0.039857 0.964383
vt 0.040488 0.964383
vt 0.040488 0.965331
vt 0.039857 0.965331
vt 0.117397 0.966880
vt 0.118035 0.966880
vt 0.118035 0.968615
vt 0.117397 0.968615
vt 0.091564 0.906928
vt 0.092202 0.906928
vt 0.092202 0.907875
vt 0.091564 0.907875
vt 0.120040 0.912126
vt 0.120672 0.912126
vt 0.120672 0.913861
vt 0.120040 0.913861
vt 0.032531 0.964383
vt 0.033163 0.964383
vt 0.033163 0.965331
vt 0.032531 0.965331
vt 0.092173 0.956514
vt 0.092173 0.957146
vt 0.091226 0.957146
vt 0.091226 0.956514
vt 0.120040 0.916405
vt 0.120672 0.916405
vt 0.120672 0.918140
vt 0.120040 0.918140
vt 0.030465 0.964383
vt 0.031097 0.964383
vt 0.031097 0.965331
vt 0.030465 0.965331
vt 0.099155 0.911016
vt 0.099155 0.911648
vt 0.098207 0.911648
vt 0.098207 0.911016
vt 0.100890 0.911016
vt 0.100890 0.911648
vt 0.030465 0.962648
vt 0.031097 0.962648
vt 0.093908 0.956514
vt 0.093908 0.957146
vt 0.032531 0.962648
vt 0.033163 0.962648
vt 0.091564 0.905192
vt 0.092202 0.905192
vt 0.039857 0.962648
vt 0.040488 0.962648
vt 0.056080 0.968470
vt 0.056712 0.968470
vt 0.056712 0.970205
vt 0.056080 0.970205
vt 0.068375 0.967049
vt 0.069008 0.967049
vt 0.069008 0.968784
vt 0.068375 0.968784
vt 0.088056 0.955628
vt 0.088056 0.956575
vt 0.087425 0.956575
vt 0.087425 0.955628
vt 0.108314 0.962779
vt 0.108314 0.964514
vt 0.107675 0.964514
vt 0.107675 0.962779
vt 0.088063 0.950402
vt 0.088063 0.951349
vt 0.087425 0.951349
vt 0.087425 0.950402
vt 0.120803 0.905702
vt 0.120803 0.907437
vt 0.120171 0.907437
vt 0.120171 0.905702
vt 0.042554 0.964383
vt 0.042554 0.965331
vt 0.041922 0.965331
vt 0.041922 0.964383
vt 0.108050 0.889690
vt 0.108998 0.889690
vt 0.108998 0.890322
vt 0.108050 0.890322
vt 0.085881 0.968587
vt 0.085881 0.970322
vt 0.085249 0.970322
vt 0.085249 0.968587
vt 0.037294 0.964383
vt 0.037294 0.965331
vt 0.036662 0.965331
vt 0.036662 0.964383
vt 0.101053 0.929333
vt 0.102000 0.929333
vt 0.102000 0.929965
vt 0.101053 0.929965
vt 0.099317 0.929333
vt 0.099317 0.929965
vt 0.037294 0.962648
vt 0.036662 0.962648
vt 0.106315 0.889690
vt 0.106315 0.890322
vt 0.042554 0.962648
vt 0.041922 0.962648
vt 0.088063 0.948666
vt 0.087425 0.948666
vt 0.088057 0.953893
vt 0.087426 0.953892
vt 0.120803 0.892866
vt 0.120803 0.894601
vt 0.120171 0.894601
vt 0.120171 0.892866
vt 0.120803 0.897145
vt 0.120803 0.898880
vt 0.120171 0.898880
vt 0.120171 0.897145
vt 0.120102 0.966880
vt 0.120102 0.968615
vt 0.119468 0.968615
vt 0.119468 0.966880
vt 0.029032 0.964383
vt 0.029032 0.965331
vt 0.028401 0.965331
vt 0.028401 0.964383
vt 0.060961 0.964228
vt 0.060961 0.965963
vt 0.060322 0.965963
vt 0.060322 0.964228
vt 0.094274 0.906928
vt 0.094274 0.907875
vt 0.093636 0.907875
vt 0.093636 0.906928
vt 0.054537 0.968470
vt 0.054537 0.970205
vt 0.053905 0.970205
vt 0.053905 0.968470
vt 0.035229 0.964383
vt 0.035229 0.965331
vt 0.034597 0.965331
vt 0.034597 0.964383
vt 0.104381 0.929267
vt 0.103433 0.929267
vt 0.103433 0.928635
vt 0.104381 0.928635
vt 0.060954 0.968507
vt 0.060954 0.970242
vt 0.060322 0.970242
vt 0.060322 0.968507
vt 0.088057 0.960854
vt 0.088057 0.961801
vt 0.087425 0.961801
vt 0.087425 0.960854
vt 0.099155 0.927900
vt 0.098207 0.927900
vt 0.098207 0.927268
vt 0.099155 0.927268
vt 0.100890 0.927900
vt 0.100890 0.927268
vt 0.088057 0.959119
vt 0.087425 0.959119
vt 0.106116 0.929267
vt 0.106116 0.928635
vt 0.035229 0.962648
vt 0.034597 0.962648
vt 0.094274 0.905192
vt 0.093636 0.905192
vt 0.029032 0.962648
vt 0.028401 0.962648
vt 0.058778 0.968470
vt 0.058778 0.970205
vt 0.058146 0.970205
vt 0.058146 0.968470
vt 0.050294 0.969059
vt 0.050294 0.970794
vt 0.049662 0.970794
vt 0.049662 0.969059
vt 0.052472 0.968470
vt 0.052472 0.970205
vt 0.051839 0.970205
vt 0.051839 0.968470
vt 0.043988 0.964383
vt 0.044619 0.964383
vt 0.044619 0.965331
vt 0.043988 0.965331
vt 0.068375 0.962770
vt 0.069013 0.962770
vt 0.069013 0.964505
vt 0.068375 0.964505
vt 0.095708 0.906928
vt 0.096346 0.906928
vt 0.096346 0.907875
vt 0.095708 0.907875
vt 0.047597 0.969059
vt 0.048229 0.969059
vt 0.048229 0.970794
vt 0.047597 0.970794
vt 0.024269 0.964383
vt 0.024901 0.964383
vt 0.024901 0.965331
vt 0.024269 0.965331
vt 0.106279 0.911648
vt 0.106279 0.911016
vt 0.107226 0.911016
vt 0.107226 0.911648
vt 0.120040 0.920683
vt 0.120672 0.920683
vt 0.120672 0.922418
vt 0.120040 0.922418
vt 0.026334 0.964383
vt 0.026966 0.964383
vt 0.026966 0.965331
vt 0.026334 0.965331
vt 0.101053 0.946217
vt 0.101053 0.945585
vt 0.102000 0.945585
vt 0.102000 0.946217
vt 0.099317 0.946217
vt 0.099317 0.945585
vt 0.026334 0.962648
vt 0.026966 0.962648
vt 0.104543 0.911648
vt 0.104543 0.911016
vt 0.024269 0.962648
vt 0.024901 0.962648
vt 0.095708 0.905192
vt 0.096346 0.905192
vt 0.043988 0.962648
vt 0.044619 0.962648
vt 0.087314 0.968587
vt 0.087946 0.968587
vt 0.087946 0.970322
vt 0.087314 0.970322
vt 0.120171 0.901423
vt 0.120803 0.901423
vt 0.120803 0.903158
vt 0.120171 0.903158
vt 0.107675 0.967058
vt 0.108309 0.967058
vt 0.108309 0.968793
vt 0.107675 0.968793
s 1
usemtl Material.005
f 23/1/1 22/2/1 8/3/1 7/4/1
f 5/5/2 1/6/2 34/7/2 33/8/2
f 24/9/3 23/10/3 7/11/3 6/12/3
f 16/13/4 9/14/4 30/15/4 31/16/4
f 28/17/5 27/18/5 20/19/5 19/20/5
f 25/21/6 26/22/6 17/23/6 18/24/6
f 9/25/7 10/26/7 29/27/7 30/28/7
f 26/29/8 28/30/8 19/31/8 17/32/8
f 27/33/9 32/34/9 21/35/9 20/36/9
f 14/37/9 15/38/9 32/34/9 27/33/9
f 12/39/8 13/40/8 28/30/8 26/29/8
f 11/41/6 12/42/6 26/22/6 25/21/6
f 13/43/5 14/44/5 27/18/5 28/17/5
f 2/45/3 3/46/3 23/10/3 24/9/3
f 3/47/1 4/48/1 22/2/1 23/1/1
f 15/49/10 16/50/10 31/51/10 32/52/10
f 4/53/11 5/54/11 33/55/11 22/56/11
f 54/57/12 38/58/12 39/59/12 53/60/12
f 37/61/13 63/62/13 34/63/13 1/64/13
f 24/65/14 6/66/14 38/67/14 54/68/14
f 47/69/10 61/70/10 60/71/10 40/72/10
f 58/73/15 50/74/15 51/75/15 57/76/15
f 55/77/8 49/78/8 48/79/8 56/80/8
f 40/81/9 60/82/9 59/83/9 41/84/9
f 56/85/6 48/86/6 50/87/6 58/88/6
f 57/89/7 51/90/7 52/91/7 62/92/7
f 45/93/7 57/89/7 62/92/7 46/94/7
f 43/95/6 56/85/6 58/88/6 44/96/6
f 42/97/8 55/77/8 56/80/8 43/98/8
f 44/99/15 58/73/15 57/76/15 45/100/15
f 2/101/14 24/65/14 54/68/14 35/102/14
f 35/103/12 54/57/12 53/60/12 36/104/12
f 46/105/4 62/106/4 61/107/4 47/108/4
f 41/109/5 59/110/5 55/111/5 42/112/5
f 36/113/16 53/114/16 63/115/16 37/116/16
f 86/117/17 70/118/17 71/119/17 85/120/17
f 68/121/3 96/122/3 97/123/3 64/124/3
f 87/125/2 69/126/2 70/127/2 86/128/2
f 79/129/6 94/130/6 93/131/6 72/132/6
f 91/133/9 82/134/9 83/135/9 90/136/9
f 88/137/4 81/138/4 80/139/4 89/140/4
f 72/141/15 93/142/15 92/143/15 73/144/15
f 89/145/10 80/146/10 82/147/10 91/148/10
f 90/149/5 83/150/5 84/151/5 95/152/5
f 77/153/5 90/149/5 95/152/5 78/154/5
f 75/155/10 89/145/10 91/148/10 76/156/10
f 74/157/4 88/137/4 89/140/4 75/158/4
f 76/159/9 91/133/9 90/136/9 77/160/9
f 65/161/2 87/125/2 86/128/2 66/162/2
f 66/163/17 86/117/17 85/120/17 67/164/17
f 78/165/8 95/166/8 94/167/8 79/168/8
f 73/169/7 92/170/7 88/171/7 74/172/7
f 67/173/18 85/174/18 96/175/18 68/176/18
f 117/177/19 116/178/19 102/179/19 101/180/19
f 100/181/14 64/182/14 97/183/14 126/184/14
f 87/185/13 117/186/13 101/187/13 69/188/13
f 110/189/8 103/190/8 123/191/8 124/192/8
f 121/193/7 120/194/7 114/195/7 113/196/7
f 118/197/10 119/198/10 111/199/10 112/200/10
f 103/201/5 104/202/5 122/203/5 123/204/5
f 119/205/4 121/206/4 113/207/4 111/208/4
f 120/209/15 125/210/15 115/211/15 114/212/15
f 108/213/15 109/214/15 125/210/15 120/209/15
f 106/215/4 107/216/4 121/206/4 119/205/4
f 105/217/10 106/218/10 119/198/10 118/197/10
f 107/219/7 108/220/7 120/194/7 121/193/7
f 65/221/13 98/222/13 117/186/13 87/185/13
f 98/223/19 99/224/19 116/178/19 117/177/19
f 109/225/6 110/226/6 124/227/6 125/228/6
f 104/229/9 105/230/9 118/231/9 122/232/9
f 99/233/20 100/234/20 126/235/20 116/236/20
