# Blender 4.1.1
# www.blender.org
mtllib table_collider_walls.mtl
o Cylinder.001
v 0.000351 0.889866 0.500611
v -0.038369 0.889866 0.484718
v 0.000351 0.889866 0.488426
v -0.029753 0.889866 0.476102
v -0.042077 0.889866 0.446419
v -0.050688 0.889866 0.455030
v -0.864323 0.889866 0.470928
v -0.825954 0.889866 0.455035
v -0.902692 0.889866 0.455035
v -0.918585 0.889866 0.416666
v -0.902692 0.889866 0.378297
v -0.864323 0.889866 0.458743
v -0.834570 0.889866 0.446419
v -0.894076 0.889866 0.446419
v -0.906400 0.889866 0.416666
v -0.894076 0.889866 0.386913
v -0.054182 0.889866 0.446419
v -0.902692 0.889866 -0.011034
v -0.894076 0.889866 -0.011034
v -0.054262 0.841593 0.446419
v -0.894076 0.841593 -0.011034
v -0.059078 0.889866 0.505508
v 0.000351 0.889866 0.529956
v -0.066983 0.889866 0.479435
v -0.931473 0.889866 0.372572
v -0.864323 0.889866 0.500272
v -0.820229 0.889866 0.483815
v -0.923442 0.889866 0.475784
v -0.947930 0.889866 0.416666
v -0.932037 0.889866 -0.011034
v -0.822356 0.841593 0.446349
v -0.894076 0.841593 0.374576
v -0.894076 0.889866 0.374576
v -0.822364 0.889866 0.446419
v 0.039071 0.889866 0.484718
v 0.030455 0.889866 0.476102
v 0.042779 0.889866 0.446419
v 0.051391 0.889866 0.455030
v 0.865026 0.889866 0.470928
v 0.826657 0.889866 0.455035
v 0.903395 0.889866 0.455035
v 0.919288 0.889866 0.416666
v 0.903395 0.889866 0.378297
v 0.865026 0.889866 0.458743
v 0.835273 0.889866 0.446419
v 0.894778 0.889866 0.446419
v 0.907102 0.889866 0.416666
v 0.894778 0.889866 0.386913
v 0.054885 0.889866 0.446419
v 0.903395 0.889866 -0.011034
v 0.894778 0.889866 -0.011034
v 0.054964 0.841593 0.446419
v 0.894778 0.841593 -0.011034
v 0.059781 0.889866 0.505508
v 0.067686 0.889866 0.479435
v 0.932175 0.889866 0.372572
v 0.865026 0.889866 0.500272
v 0.820932 0.889866 0.483815
v 0.924144 0.889866 0.475784
v 0.948632 0.889866 0.416666
v 0.932739 0.889866 -0.011034
v 0.823059 0.841593 0.446349
v 0.894778 0.841593 0.374576
v 0.894778 0.889866 0.374576
v 0.823066 0.889866 0.446419
v 0.000351 0.889866 -0.522678
v -0.038369 0.889866 -0.506785
v 0.000351 0.889866 -0.510493
v -0.029753 0.889866 -0.498169
v -0.042077 0.889866 -0.468486
v -0.050688 0.889866 -0.477097
v -0.864323 0.889866 -0.492995
v -0.825954 0.889866 -0.477102
v -0.902692 0.889866 -0.477102
v -0.918585 0.889866 -0.438733
v -0.902692 0.889866 -0.400364
v -0.864323 0.889866 -0.480810
v -0.834570 0.889866 -0.468486
v -0.894076 0.889866 -0.468486
v -0.906400 0.889866 -0.438733
v -0.894076 0.889866 -0.408980
v -0.054182 0.889866 -0.468486
v -0.054262 0.841593 -0.468486
v -0.059078 0.889866 -0.527575
v 0.000351 0.889866 -0.552023
v -0.066983 0.889866 -0.501502
v -0.931473 0.889866 -0.394639
v -0.864323 0.889866 -0.522339
v -0.820229 0.889866 -0.505883
v -0.923442 0.889866 -0.497852
v -0.947930 0.889866 -0.438733
v -0.822356 0.841593 -0.468416
v -0.894076 0.841593 -0.396643
v -0.894076 0.889866 -0.396643
v -0.822364 0.889866 -0.468486
v 0.039071 0.889866 -0.506785
v 0.030455 0.889866 -0.498169
v 0.042779 0.889866 -0.468486
v 0.051391 0.889866 -0.477097
v 0.865026 0.889866 -0.492995
v 0.826657 0.889866 -0.477102
v 0.903395 0.889866 -0.477102
v 0.919288 0.889866 -0.438733
v 0.903395 0.889866 -0.400364
v 0.865026 0.889866 -0.480810
v 0.835273 0.889866 -0.468486
v 0.894778 0.889866 -0.468486
v 0.907102 0.889866 -0.438733
v 0.894778 0.889866 -0.408980
v 0.054885 0.889866 -0.468486
v 0.054964 0.841593 -0.468486
v 0.059781 0.889866 -0.527575
v 0.067686 0.889866 -0.501502
v 0.932175 0.889866 -0.394639
v 0.865026 0.889866 -0.522339
v 0.820932 0.889866 -0.505883
v 0.924144 0.889866 -0.497852
v 0.948632 0.889866 -0.438733
v 0.823059 0.841593 -0.468416
v 0.894778 0.841593 -0.396643
v 0.894778 0.889866 -0.396643
v 0.823066 0.889866 -0.468486
v -0.076364 0.889866 0.521211
v 0.000351 0.889866 0.553309
v -0.080841 0.889866 0.498232
v -0.954458 0.889866 0.368440
v -0.864737 0.889866 0.523622
v -0.816014 0.889866 0.506785
v -0.939955 0.889866 0.492298
v -0.971279 0.889866 0.417080
v -0.955390 0.889866 -0.011034
v 0.077067 0.889866 0.521211
v 0.081544 0.889866 0.498232
v 0.955160 0.889866 0.368440
v 0.865440 0.889866 0.523622
v 0.816716 0.889866 0.506785
v 0.940658 0.889866 0.492298
v 0.971982 0.889866 0.417080
v 0.956093 0.889866 -0.011034
v -0.076364 0.889866 -0.543278
v 0.000351 0.889866 -0.575376
v -0.080841 0.889866 -0.520299
v -0.954458 0.889866 -0.390507
v -0.864737 0.889866 -0.545689
v -0.816014 0.889866 -0.528852
v -0.939955 0.889866 -0.514365
v -0.971279 0.889866 -0.439147
v 0.077067 0.889866 -0.543278
v 0.081544 0.889866 -0.520299
v 0.955160 0.889866 -0.390507
v 0.865440 0.889866 -0.545689
v 0.816716 0.889866 -0.528852
v 0.940658 0.889866 -0.514365
v 0.971982 0.889866 -0.439147
vn -0.0000 1.0000 -0.0000
vn 1.0000 -0.0000 -0.0000
vn 0.0001 0.0014 -1.0000
vn -0.0000 0.0001 -1.0000
vn 0.0001 0.0015 -1.0000
vn -1.0000 -0.0000 -0.0000
vn -0.0001 0.0014 -1.0000
vn -0.0001 0.0015 -1.0000
vn -0.0000 0.0001 1.0000
vn 0.0001 0.0014 1.0000
vn 0.0001 0.0015 1.0000
vn -0.0001 0.0014 1.0000
vn -0.0001 0.0015 1.0000
vn -0.0000 -0.0000 -1.0000
vn -0.0000 -0.0000 1.0000
vt 0.068888 0.892615
vt 0.069369 0.893206
vt 0.069130 0.893206
vt 0.068475 0.892204
vt 0.069057 0.892446
vt 0.068547 0.876236
vt 0.068475 0.876989
vt 0.068306 0.876820
vt 0.068306 0.875652
vt 0.068787 0.876236
vt 0.067722 0.875411
vt 0.068475 0.875483
vt 0.066969 0.875483
vt 0.067722 0.875171
vt 0.068306 0.892136
vt 0.068306 0.892373
vt 0.068306 0.877060
vt 0.067138 0.875652
vt 0.066896 0.875652
vt 0.066856 0.874919
vt 0.067722 0.874596
vt 0.068882 0.875076
vt 0.069363 0.876236
vt 0.069040 0.877102
vt 0.049191 0.892040
vt 0.048253 0.893206
vt 0.048882 0.891700
vt 0.069363 0.910176
vt 0.069490 0.909227
vt 0.069821 0.910184
vt 0.059328 0.875483
vt 0.069945 0.893206
vt 0.068954 0.891884
vt 0.069465 0.892040
vt 0.099155 0.911890
vt 0.098207 0.919458
vt 0.098207 0.911890
vt 0.059328 0.875652
vt 0.091226 0.956275
vt 0.092173 0.941200
vt 0.092173 0.956274
vt 0.068888 0.893797
vt 0.068475 0.894208
vt 0.068306 0.894039
vt 0.068306 0.909592
vt 0.068787 0.910176
vt 0.068547 0.910176
vt 0.068306 0.910759
vt 0.068475 0.910928
vt 0.067722 0.911001
vt 0.066969 0.910928
vt 0.067138 0.910759
vt 0.068306 0.894276
vt 0.068306 0.909352
vt 0.068475 0.909423
vt 0.066896 0.910759
vt 0.067722 0.911240
vt 0.066856 0.911493
vt 0.068882 0.911336
vt 0.069040 0.909310
vt 0.069465 0.894372
vt 0.069322 0.894799
vt 0.068954 0.894527
vt 0.070403 0.893206
vt 0.069773 0.894711
vt 0.059328 0.911504
vt 0.051881 0.911944
vt 0.051800 0.911493
vt 0.059328 0.910928
vt 0.069057 0.893966
vt 0.102000 0.937775
vt 0.101053 0.930207
vt 0.102000 0.930207
vt 0.108050 0.874376
vt 0.108998 0.889451
vt 0.108050 0.889451
vt 0.049287 0.893206
vt 0.049768 0.892615
vt 0.049526 0.893206
vt 0.050181 0.892204
vt 0.050350 0.892373
vt 0.050350 0.876820
vt 0.049869 0.876236
vt 0.050108 0.876236
vt 0.050350 0.875652
vt 0.050181 0.875483
vt 0.050934 0.875411
vt 0.050934 0.875171
vt 0.051518 0.875652
vt 0.050350 0.892136
vt 0.050350 0.877060
vt 0.050181 0.876989
vt 0.051687 0.875483
vt 0.051760 0.875652
vt 0.051800 0.874919
vt 0.049774 0.875076
vt 0.049293 0.876236
vt 0.049616 0.877102
vt 0.049616 0.909310
vt 0.049333 0.894799
vt 0.049702 0.894527
vt 0.048711 0.893206
vt 0.049599 0.892446
vt 0.049702 0.891884
vt 0.099155 0.927026
vt 0.098207 0.927026
vt 0.104381 0.944580
vt 0.103433 0.929506
vt 0.104381 0.929506
vt 0.049768 0.893797
vt 0.050181 0.894208
vt 0.049599 0.893966
vt 0.050350 0.909592
vt 0.049869 0.910175
vt 0.050181 0.909423
vt 0.050350 0.910759
vt 0.050108 0.910175
vt 0.050934 0.911001
vt 0.050181 0.910928
vt 0.051687 0.910928
vt 0.050934 0.911240
vt 0.050350 0.894276
vt 0.050350 0.894039
vt 0.050350 0.909352
vt 0.051518 0.910759
vt 0.051760 0.910759
vt 0.050934 0.911816
vt 0.049774 0.911336
vt 0.049293 0.910175
vt 0.050926 0.912275
vt 0.049450 0.911660
vt 0.049191 0.894372
vt 0.101053 0.945343
vt 0.102000 0.945343
vt 0.059328 0.910759
vt 0.107226 0.911888
vt 0.106279 0.926962
vt 0.106279 0.911888
vt 0.069206 0.911660
vt 0.049333 0.891613
vt 0.069322 0.891613
vt 0.069773 0.891700
vt 0.067730 0.912275
vt 0.067722 0.911816
vt 0.066775 0.911944
vt 0.049166 0.877185
vt 0.048835 0.876228
vt 0.069490 0.877185
vt 0.049450 0.874752
vt 0.069821 0.876228
vt 0.050926 0.874137
vt 0.050934 0.874596
vt 0.067730 0.874137
vt 0.069206 0.874752
vt 0.051881 0.874467
vt 0.066775 0.874467
vt 0.059328 0.911963
vt 0.048882 0.894711
vt 0.059328 0.874907
vt 0.059328 0.874449
vt 0.049166 0.909227
vt 0.048835 0.910184
vt 0.099155 0.919458
vt 0.091226 0.941199
vt 0.101053 0.937775
vt 0.108998 0.874375
vt 0.103433 0.944582
vt 0.107226 0.926963
s 1
usemtl Material.003
f 4/1/1 1/2/1 3/3/1
f 4/1/1 6/4/1 2/5/1
f 12/6/1 8/7/1 13/8/1
f 14/9/1 7/10/1 12/6/1
f 15/11/1 9/12/1 14/9/1
f 15/11/1 11/13/1 10/14/1
f 17/15/1 6/4/1 5/16/1
f 6/4/1 34/17/1 8/7/1
f 11/13/1 16/18/1 33/19/1
f 10/14/1 25/20/1 29/21/1
f 10/14/1 28/22/1 9/12/1
f 9/12/1 26/23/1 7/10/1
f 7/10/1 27/24/1 8/7/1
f 84/25/1 141/26/1 140/27/1
f 57/28/1 136/29/1 135/30/1
f 18/31/1 25/20/1 11/13/1
f 2/5/1 23/32/1 1/2/1
f 2/5/1 24/33/1 22/34/1
f 8/7/1 24/33/1 6/4/1
f 32/35/2 19/36/2 33/37/2
f 18/31/1 33/19/1 19/38/1
f 13/8/1 8/7/1 34/17/1
f 34/39/3 20/40/4 31/41/5
f 1/2/1 36/42/1 3/3/1
f 36/42/1 38/43/1 37/44/1
f 45/45/1 39/46/1 44/47/1
f 39/46/1 46/48/1 44/47/1
f 41/49/1 47/50/1 46/48/1
f 47/50/1 43/51/1 48/52/1
f 49/53/1 37/44/1 38/43/1
f 65/54/1 38/43/1 40/55/1
f 43/51/1 64/56/1 48/52/1
f 42/57/1 56/58/1 43/51/1
f 59/59/1 42/57/1 41/49/1
f 39/46/1 59/59/1 41/49/1
f 58/60/1 39/46/1 40/55/1
f 54/61/1 133/62/1 55/63/1
f 54/61/1 124/64/1 132/65/1
f 61/66/1 150/67/1 114/68/1
f 56/58/1 50/69/1 43/51/1
f 23/32/1 35/70/1 1/2/1
f 35/70/1 55/63/1 38/43/1
f 55/63/1 40/55/1 38/43/1
f 51/71/6 63/72/6 64/73/6
f 50/69/1 64/56/1 43/51/1
f 45/45/1 65/54/1 40/55/1
f 52/74/4 65/75/7 62/76/8
f 66/77/1 69/78/1 68/79/1
f 69/78/1 71/80/1 70/81/1
f 78/82/1 72/83/1 77/84/1
f 72/83/1 79/85/1 77/84/1
f 74/86/1 80/87/1 79/85/1
f 75/88/1 81/89/1 80/87/1
f 82/90/1 70/81/1 71/80/1
f 95/91/1 71/80/1 73/92/1
f 76/93/1 94/94/1 81/89/1
f 75/88/1 87/95/1 76/93/1
f 90/96/1 75/88/1 74/86/1
f 88/97/1 74/86/1 72/83/1
f 89/98/1 72/83/1 73/92/1
f 116/99/1 149/100/1 113/101/1
f 87/95/1 18/31/1 76/93/1
f 85/102/1 67/103/1 66/77/1
f 67/103/1 86/104/1 71/80/1
f 86/104/1 73/92/1 71/80/1
f 19/36/2 93/105/2 94/106/2
f 18/31/1 94/94/1 76/93/1
f 78/82/1 95/91/1 73/92/1
f 83/107/9 95/108/10 92/109/11
f 97/110/1 66/77/1 68/79/1
f 97/110/1 99/111/1 96/112/1
f 106/113/1 100/114/1 101/115/1
f 107/116/1 100/114/1 105/117/1
f 108/118/1 102/119/1 107/116/1
f 108/118/1 104/120/1 103/121/1
f 110/122/1 99/111/1 98/123/1
f 99/111/1 122/124/1 101/115/1
f 104/120/1 109/125/1 121/126/1
f 103/121/1 114/68/1 118/127/1
f 102/119/1 118/127/1 117/128/1
f 100/114/1 117/128/1 115/129/1
f 100/114/1 116/99/1 101/115/1
f 118/127/1 150/67/1 154/130/1
f 117/128/1 154/130/1 153/131/1
f 50/69/1 114/68/1 104/120/1
f 96/112/1 85/102/1 66/77/1
f 96/112/1 113/101/1 112/132/1
f 101/115/1 113/101/1 99/111/1
f 120/133/6 51/71/6 121/134/6
f 50/69/1 121/126/1 51/135/1
f 106/113/1 101/115/1 122/124/1
f 122/136/12 111/137/9 119/138/13
f 22/34/1 124/64/1 23/32/1
f 59/59/1 135/30/1 137/139/1
f 84/25/1 142/140/1 86/104/1
f 22/34/1 125/141/1 123/142/1
f 59/59/1 138/143/1 60/144/1
f 60/144/1 134/145/1 56/58/1
f 88/97/1 145/146/1 144/147/1
f 26/23/1 128/148/1 27/24/1
f 90/96/1 144/147/1 146/149/1
f 28/22/1 127/150/1 26/23/1
f 90/96/1 147/151/1 91/152/1
f 28/22/1 130/153/1 129/154/1
f 58/60/1 133/62/1 136/29/1
f 91/152/1 143/155/1 87/95/1
f 29/21/1 126/156/1 130/153/1
f 61/66/1 134/145/1 139/157/1
f 112/132/1 141/26/1 85/102/1
f 112/132/1 149/100/1 148/158/1
f 89/98/1 142/140/1 145/146/1
f 27/24/1 125/141/1 24/33/1
f 30/159/1 143/155/1 131/160/1
f 115/129/1 152/161/1 116/99/1
f 30/159/1 126/156/1 25/20/1
f 117/128/1 151/162/1 115/129/1
f 4/1/1 2/5/1 1/2/1
f 4/1/1 5/16/1 6/4/1
f 12/6/1 7/10/1 8/7/1
f 14/9/1 9/12/1 7/10/1
f 15/11/1 10/14/1 9/12/1
f 15/11/1 16/18/1 11/13/1
f 6/4/1 17/15/1 34/17/1
f 10/14/1 11/13/1 25/20/1
f 10/14/1 29/21/1 28/22/1
f 9/12/1 28/22/1 26/23/1
f 7/10/1 26/23/1 27/24/1
f 84/25/1 85/102/1 141/26/1
f 57/28/1 58/60/1 136/29/1
f 18/31/1 30/159/1 25/20/1
f 2/5/1 22/34/1 23/32/1
f 2/5/1 6/4/1 24/33/1
f 8/7/1 27/24/1 24/33/1
f 32/35/2 21/163/2 19/36/2
f 18/31/1 11/13/1 33/19/1
f 34/39/3 17/164/14 20/40/4
f 1/2/1 35/70/1 36/42/1
f 36/42/1 35/70/1 38/43/1
f 45/45/1 40/55/1 39/46/1
f 39/46/1 41/49/1 46/48/1
f 41/49/1 42/57/1 47/50/1
f 47/50/1 42/57/1 43/51/1
f 65/54/1 49/53/1 38/43/1
f 42/57/1 60/144/1 56/58/1
f 59/59/1 60/144/1 42/57/1
f 39/46/1 57/28/1 59/59/1
f 58/60/1 57/28/1 39/46/1
f 54/61/1 132/65/1 133/62/1
f 54/61/1 23/32/1 124/64/1
f 61/66/1 139/157/1 150/67/1
f 56/58/1 61/66/1 50/69/1
f 23/32/1 54/61/1 35/70/1
f 35/70/1 54/61/1 55/63/1
f 55/63/1 58/60/1 40/55/1
f 51/71/6 53/165/6 63/72/6
f 50/69/1 51/135/1 64/56/1
f 52/74/4 49/166/14 65/75/7
f 66/77/1 67/103/1 69/78/1
f 69/78/1 67/103/1 71/80/1
f 78/82/1 73/92/1 72/83/1
f 72/83/1 74/86/1 79/85/1
f 74/86/1 75/88/1 80/87/1
f 75/88/1 76/93/1 81/89/1
f 95/91/1 82/90/1 71/80/1
f 75/88/1 91/152/1 87/95/1
f 90/96/1 91/152/1 75/88/1
f 88/97/1 90/96/1 74/86/1
f 89/98/1 88/97/1 72/83/1
f 116/99/1 152/161/1 149/100/1
f 87/95/1 30/159/1 18/31/1
f 85/102/1 84/25/1 67/103/1
f 67/103/1 84/25/1 86/104/1
f 86/104/1 89/98/1 73/92/1
f 19/36/2 21/163/2 93/105/2
f 18/31/1 19/38/1 94/94/1
f 83/107/9 82/167/15 95/108/10
f 97/110/1 96/112/1 66/77/1
f 97/110/1 98/123/1 99/111/1
f 106/113/1 105/117/1 100/114/1
f 107/116/1 102/119/1 100/114/1
f 108/118/1 103/121/1 102/119/1
f 108/118/1 109/125/1 104/120/1
f 99/111/1 110/122/1 122/124/1
f 103/121/1 104/120/1 114/68/1
f 102/119/1 103/121/1 118/127/1
f 100/114/1 102/119/1 117/128/1
f 100/114/1 115/129/1 116/99/1
f 118/127/1 114/68/1 150/67/1
f 117/128/1 118/127/1 154/130/1
f 50/69/1 61/66/1 114/68/1
f 96/112/1 112/132/1 85/102/1
f 96/112/1 99/111/1 113/101/1
f 101/115/1 116/99/1 113/101/1
f 120/133/6 53/165/6 51/71/6
f 50/69/1 104/120/1 121/126/1
f 122/136/12 110/168/15 111/137/9
f 22/34/1 123/142/1 124/64/1
f 59/59/1 57/28/1 135/30/1
f 84/25/1 140/27/1 142/140/1
f 22/34/1 24/33/1 125/141/1
f 59/59/1 137/139/1 138/143/1
f 60/144/1 138/143/1 134/145/1
f 88/97/1 89/98/1 145/146/1
f 26/23/1 127/150/1 128/148/1
f 90/96/1 88/97/1 144/147/1
f 28/22/1 129/154/1 127/150/1
f 90/96/1 146/149/1 147/151/1
f 28/22/1 29/21/1 130/153/1
f 58/60/1 55/63/1 133/62/1
f 91/152/1 147/151/1 143/155/1
f 29/21/1 25/20/1 126/156/1
f 61/66/1 56/58/1 134/145/1
f 112/132/1 148/158/1 141/26/1
f 112/132/1 113/101/1 149/100/1
f 89/98/1 86/104/1 142/140/1
f 27/24/1 128/148/1 125/141/1
f 30/159/1 87/95/1 143/155/1
f 115/129/1 151/162/1 152/161/1
f 30/159/1 131/160/1 126/156/1
f 117/128/1 153/131/1 151/162/1
