# Blender 4.1.1
# www.blender.org
mtllib table_collider_holes.mtl
o Cylinder.002
v 0.000351 0.753181 0.404272
v 0.000351 0.753181 0.488426
v -0.029753 0.753181 0.476102
v -0.042077 0.753181 0.446419
v -0.029753 0.753181 0.416596
v 0.000351 0.889866 0.488426
v -0.029753 0.889866 0.476102
v -0.042077 0.889866 0.446419
v -0.834570 0.753182 0.386913
v -0.822246 0.753182 0.416666
v -0.834570 0.753182 0.446419
v -0.864323 0.753182 0.458743
v -0.894076 0.753182 0.446419
v -0.906400 0.753182 0.416666
v -0.894076 0.753182 0.386913
v -0.864323 0.753182 0.374589
v -0.864323 0.889866 0.458743
v -0.834570 0.889866 0.446419
v -0.894076 0.889866 0.446419
v -0.906400 0.889866 0.416666
v -0.894076 0.889866 0.386913
v -0.054182 0.889866 0.446419
v -0.042077 0.841593 0.446419
v -0.029753 0.841593 0.476102
v 0.000351 0.841593 0.488426
v -0.834570 0.841593 0.446419
v -0.864323 0.841593 0.458743
v -0.906400 0.841593 0.416666
v -0.894076 0.841593 0.446419
v -0.054262 0.841593 0.446419
v -0.822356 0.841593 0.446349
v -0.894076 0.841593 0.374576
v -0.822246 0.841593 0.416666
v -0.834570 0.841593 0.386913
v -0.864323 0.841593 0.374589
v -0.894076 0.841593 0.386913
v -0.029753 0.841593 0.416596
v 0.000351 0.841593 0.404272
v -0.894076 0.889866 0.374576
v -0.822364 0.889866 0.446419
v 0.030455 0.753181 0.476102
v 0.042779 0.753181 0.446419
v 0.030455 0.753181 0.416596
v 0.030455 0.889866 0.476102
v 0.042779 0.889866 0.446419
v 0.835273 0.753182 0.386913
v 0.822949 0.753182 0.416666
v 0.835273 0.753182 0.446419
v 0.865026 0.753182 0.458743
v 0.894778 0.753182 0.446419
v 0.907102 0.753182 0.416666
v 0.894778 0.753182 0.386913
v 0.865026 0.753182 0.374589
v 0.865026 0.889866 0.458743
v 0.835273 0.889866 0.446419
v 0.894778 0.889866 0.446419
v 0.907102 0.889866 0.416666
v 0.894778 0.889866 0.386913
v 0.054885 0.889866 0.446419
v 0.042779 0.841593 0.446419
v 0.030455 0.841593 0.476102
v 0.835273 0.841593 0.446419
v 0.865026 0.841593 0.458743
v 0.907102 0.841593 0.416666
v 0.894778 0.841593 0.446419
v 0.054964 0.841593 0.446419
v 0.823059 0.841593 0.446349
v 0.894778 0.841593 0.374576
v 0.822949 0.841593 0.416666
v 0.835273 0.841593 0.386913
v 0.865026 0.841593 0.374589
v 0.894778 0.841593 0.386913
v 0.030455 0.841593 0.416596
v 0.894778 0.889866 0.374576
v 0.823066 0.889866 0.446419
v 0.000351 0.753181 -0.426340
v 0.000351 0.753181 -0.510493
v -0.029753 0.753181 -0.498169
v -0.042077 0.753181 -0.468486
v -0.029753 0.753181 -0.438664
v 0.000351 0.889866 -0.510493
v -0.029753 0.889866 -0.498169
v -0.042077 0.889866 -0.468486
v -0.834570 0.753182 -0.408980
v -0.822246 0.753182 -0.438733
v -0.834570 0.753182 -0.468486
v -0.864323 0.753182 -0.480810
v -0.894076 0.753182 -0.468486
v -0.906400 0.753182 -0.438733
v -0.894076 0.753182 -0.408980
v -0.864323 0.753182 -0.396656
v -0.864323 0.889866 -0.480810
v -0.834570 0.889866 -0.468486
v -0.894076 0.889866 -0.468486
v -0.906400 0.889866 -0.438733
v -0.894076 0.889866 -0.408980
v -0.054182 0.889866 -0.468486
v -0.042077 0.841593 -0.468486
v -0.029753 0.841593 -0.498169
v 0.000351 0.841593 -0.510493
v -0.834570 0.841593 -0.468486
v -0.864323 0.841593 -0.480810
v -0.906400 0.841593 -0.438733
v -0.894076 0.841593 -0.468486
v -0.054262 0.841593 -0.468486
v -0.822356 0.841593 -0.468416
v -0.894076 0.841593 -0.396643
v -0.822246 0.841593 -0.438733
v -0.834570 0.841593 -0.408980
v -0.864323 0.841593 -0.396656
v -0.894076 0.841593 -0.408980
v -0.029753 0.841593 -0.438664
v 0.000351 0.841593 -0.426340
v -0.894076 0.889866 -0.396643
v -0.822364 0.889866 -0.468486
v 0.030455 0.753181 -0.498169
v 0.042779 0.753181 -0.468486
v 0.030455 0.753181 -0.438664
v 0.030455 0.889866 -0.498169
v 0.042779 0.889866 -0.468486
v 0.835273 0.753182 -0.408980
v 0.822949 0.753182 -0.438733
v 0.835273 0.753182 -0.468486
v 0.865026 0.753182 -0.480810
v 0.894778 0.753182 -0.468486
v 0.907102 0.753182 -0.438733
v 0.894778 0.753182 -0.408980
v 0.865026 0.753182 -0.396656
v 0.865026 0.889866 -0.480810
v 0.835273 0.889866 -0.468486
v 0.894778 0.889866 -0.468486
v 0.907102 0.889866 -0.438733
v 0.894778 0.889866 -0.408980
v 0.054885 0.889866 -0.468486
v 0.042779 0.841593 -0.468486
v 0.030455 0.841593 -0.498169
v 0.835273 0.841593 -0.468486
v 0.865026 0.841593 -0.480810
v 0.907102 0.841593 -0.438733
v 0.894778 0.841593 -0.468486
v 0.054964 0.841593 -0.468486
v 0.823059 0.841593 -0.468416
v 0.894778 0.841593 -0.396643
v 0.822949 0.841593 -0.438733
v 0.835273 0.841593 -0.408980
v 0.865026 0.841593 -0.396656
v 0.894778 0.841593 -0.408980
v 0.030455 0.841593 -0.438664
v 0.894778 0.889866 -0.396643
v 0.823066 0.889866 -0.468486
vn 0.9236 -0.0000 -0.3835
vn 0.3789 -0.0000 0.9255
vn 0.3789 -0.0000 -0.9255
vn -0.3827 -0.0000 0.9239
vn 0.9239 -0.0000 -0.3827
vn -0.3827 -0.0000 -0.9239
vn -0.1968 0.0004 -0.9804
vn -0.2607 0.0002 -0.9654
vn -0.9239 -0.0000 0.3827
vn 0.3827 -0.0000 -0.9239
vn 0.9657 -0.0000 0.2596
vn 0.9239 -0.0000 0.3827
vn -0.2623 0.0007 -0.9650
vn -0.0009 0.0002 -1.0000
vn -0.0057 0.0014 -1.0000
vn -0.0000 -0.0000 -1.0000
vn 1.0000 -0.0000 -0.0000
vn 0.9808 -0.0000 0.1951
vn 0.3827 -0.0000 0.9239
vn -0.9239 -0.0000 -0.3827
vn 0.9242 -0.0000 0.3819
vn -0.9236 -0.0000 -0.3835
vn -0.3789 -0.0000 0.9255
vn -0.3789 -0.0000 -0.9255
vn 0.1951 -0.0000 -0.9808
vn 0.2611 0.0004 -0.9653
vn -0.9657 -0.0000 0.2598
vn 0.0009 0.0002 -1.0000
vn -1.0000 -0.0000 -0.0000
vn -0.9658 -0.0000 0.2592
vn -0.9808 -0.0000 0.1948
vn -0.9242 -0.0000 0.3819
vn 0.9236 -0.0000 0.3835
vn -0.1951 -0.0000 0.9808
vn -0.2611 0.0004 0.9653
vn 0.9657 -0.0000 -0.2598
vn -0.0009 0.0002 1.0000
vn -0.0000 -0.0000 1.0000
vn 0.9658 -0.0000 -0.2592
vn 0.9808 -0.0000 -0.1948
vn 0.9242 -0.0000 -0.3819
vn -0.9236 -0.0000 0.3835
vn 0.1968 0.0004 0.9804
vn 0.2607 0.0002 0.9654
vn -0.9657 -0.0000 -0.2596
vn 0.2623 0.0007 0.9650
vn 0.0009 0.0002 1.0000
vn 0.0057 0.0014 1.0000
vn -0.9808 -0.0000 -0.1951
vn -0.9242 -0.0000 -0.3819
vn -0.1932 -0.0003 -0.9812
vn -0.9807 -0.0000 0.1954
vn 0.0057 0.0014 -1.0000
vn 0.9807 -0.0000 -0.1954
vn -0.0057 0.0014 1.0000
vn 0.1932 -0.0003 0.9812
vt 0.040488 0.964383
vt 0.039857 0.965331
vt 0.039857 0.964383
vt 0.118035 0.966880
vt 0.117397 0.968615
vt 0.117397 0.966880
vt 0.092202 0.906928
vt 0.091564 0.907875
vt 0.091564 0.906928
vt 0.120672 0.912126
vt 0.120040 0.913861
vt 0.120040 0.912126
vt 0.033163 0.964383
vt 0.032531 0.965331
vt 0.032531 0.964383
vt 0.092173 0.957146
vt 0.091226 0.956514
vt 0.092173 0.956514
vt 0.120672 0.916405
vt 0.120040 0.918140
vt 0.120040 0.916405
vt 0.031097 0.964383
vt 0.030465 0.965331
vt 0.030465 0.964383
vt 0.099155 0.911648
vt 0.098207 0.911016
vt 0.099155 0.911016
vt 0.091226 0.956275
vt 0.092173 0.956274
vt 0.091226 0.941199
vt 0.092173 0.940961
vt 0.092173 0.941200
vt 0.098207 0.911890
vt 0.098207 0.911648
vt 0.100890 0.911648
vt 0.100890 0.911016
vt 0.031097 0.962648
vt 0.030465 0.962648
vt 0.093908 0.957146
vt 0.093908 0.956514
vt 0.033163 0.962648
vt 0.032531 0.962648
vt 0.092202 0.905192
vt 0.091564 0.905192
vt 0.040488 0.962648
vt 0.039857 0.962648
vt 0.056712 0.968470
vt 0.056080 0.970205
vt 0.056080 0.968470
vt 0.120983 0.932079
vt 0.120351 0.933814
vt 0.120351 0.932079
vt 0.069008 0.967049
vt 0.068375 0.968784
vt 0.068375 0.967049
vt 0.088056 0.956575
vt 0.087425 0.955628
vt 0.088056 0.955628
vt 0.108314 0.964514
vt 0.107675 0.962779
vt 0.108314 0.962779
vt 0.088063 0.951349
vt 0.087425 0.950402
vt 0.088063 0.950402
vt 0.120803 0.907437
vt 0.120171 0.905702
vt 0.120803 0.905702
vt 0.042554 0.965331
vt 0.041922 0.964383
vt 0.042554 0.964383
vt 0.108998 0.889690
vt 0.108050 0.890322
vt 0.108050 0.889690
vt 0.085881 0.970322
vt 0.085249 0.968587
vt 0.085881 0.968587
vt 0.037294 0.965331
vt 0.036662 0.964383
vt 0.037294 0.964383
vt 0.102000 0.929333
vt 0.101053 0.929965
vt 0.101053 0.929333
vt 0.108998 0.889451
vt 0.108050 0.874137
vt 0.108998 0.874375
vt 0.108050 0.874376
vt 0.102000 0.930207
vt 0.102000 0.929965
vt 0.099317 0.929965
vt 0.099317 0.929333
vt 0.036662 0.962648
vt 0.037294 0.962648
vt 0.106315 0.890322
vt 0.106315 0.889690
vt 0.041922 0.962648
vt 0.042554 0.962648
vt 0.087425 0.948666
vt 0.088063 0.948666
vt 0.087426 0.953892
vt 0.088057 0.953893
vt 0.120803 0.894601
vt 0.120171 0.892866
vt 0.120803 0.892866
vt 0.120803 0.898880
vt 0.120171 0.897145
vt 0.120803 0.897145
vt 0.120102 0.968615
vt 0.119468 0.966880
vt 0.120102 0.966880
vt 0.029032 0.965331
vt 0.028401 0.964383
vt 0.029032 0.964383
vt 0.060961 0.965963
vt 0.060322 0.964228
vt 0.060961 0.964228
vt 0.094274 0.907875
vt 0.093636 0.906928
vt 0.094274 0.906928
vt 0.054537 0.970205
vt 0.053905 0.968470
vt 0.054537 0.968470
vt 0.035229 0.965331
vt 0.034597 0.964383
vt 0.035229 0.964383
vt 0.103433 0.929267
vt 0.104381 0.928635
vt 0.104381 0.929267
vt 0.060954 0.970242
vt 0.060322 0.968507
vt 0.060954 0.968507
vt 0.088057 0.961801
vt 0.087425 0.960854
vt 0.088057 0.960854
vt 0.098207 0.927900
vt 0.099155 0.927268
vt 0.099155 0.927900
vt 0.103433 0.929506
vt 0.104381 0.944820
vt 0.103433 0.944582
vt 0.104381 0.944580
vt 0.098207 0.927026
vt 0.098207 0.927268
vt 0.100890 0.927268
vt 0.100890 0.927900
vt 0.087425 0.959119
vt 0.088057 0.959119
vt 0.106116 0.928635
vt 0.106116 0.929267
vt 0.034597 0.962648
vt 0.035229 0.962648
vt 0.093636 0.905192
vt 0.094274 0.905192
vt 0.028401 0.962648
vt 0.029032 0.962648
vt 0.058778 0.970205
vt 0.058146 0.968470
vt 0.058778 0.968470
vt 0.050294 0.970794
vt 0.049662 0.969059
vt 0.050294 0.969059
vt 0.052472 0.970205
vt 0.051839 0.968470
vt 0.052472 0.968470
vt 0.044619 0.964383
vt 0.043988 0.965331
vt 0.043988 0.964383
vt 0.069013 0.962770
vt 0.068375 0.964505
vt 0.068375 0.962770
vt 0.096346 0.906928
vt 0.095708 0.907875
vt 0.095708 0.906928
vt 0.048229 0.969059
vt 0.047597 0.970794
vt 0.047597 0.969059
vt 0.024901 0.964383
vt 0.024269 0.965331
vt 0.024269 0.964383
vt 0.106279 0.911016
vt 0.107226 0.911648
vt 0.106279 0.911648
vt 0.120672 0.920683
vt 0.120040 0.922418
vt 0.120040 0.920683
vt 0.026966 0.964383
vt 0.026334 0.965331
vt 0.026334 0.964383
vt 0.101053 0.945585
vt 0.102000 0.946217
vt 0.101053 0.946217
vt 0.107226 0.911888
vt 0.106279 0.911888
vt 0.107226 0.926963
vt 0.106279 0.927201
vt 0.106279 0.926962
vt 0.102000 0.945343
vt 0.102000 0.945585
vt 0.099317 0.945585
vt 0.099317 0.946217
vt 0.026966 0.962648
vt 0.026334 0.962648
vt 0.104543 0.911016
vt 0.104543 0.911648
vt 0.024901 0.962648
vt 0.024269 0.962648
vt 0.096346 0.905192
vt 0.095708 0.905192
vt 0.044619 0.962648
vt 0.043988 0.962648
vt 0.087946 0.968587
vt 0.087314 0.970322
vt 0.087314 0.968587
vt 0.120803 0.901423
vt 0.120171 0.903158
vt 0.120171 0.901423
vt 0.108309 0.967058
vt 0.107675 0.968793
vt 0.107675 0.967058
vt 0.040488 0.965331
vt 0.118035 0.968615
vt 0.092202 0.907875
vt 0.120672 0.913861
vt 0.033163 0.965331
vt 0.091226 0.957146
vt 0.120672 0.918140
vt 0.031097 0.965331
vt 0.091226 0.940961
vt 0.099155 0.911890
vt 0.056712 0.970205
vt 0.120983 0.933814
vt 0.069008 0.968784
vt 0.087425 0.956575
vt 0.107675 0.964514
vt 0.087425 0.951349
vt 0.120171 0.907437
vt 0.041922 0.965331
vt 0.108998 0.890322
vt 0.085249 0.970322
vt 0.036662 0.965331
vt 0.108050 0.889451
vt 0.108998 0.874137
vt 0.101053 0.930207
vt 0.120171 0.894601
vt 0.120171 0.898880
vt 0.119468 0.968615
vt 0.028401 0.965331
vt 0.060322 0.965963
vt 0.093636 0.907875
vt 0.053905 0.970205
vt 0.034597 0.965331
vt 0.103433 0.928635
vt 0.060322 0.970242
vt 0.087425 0.961801
vt 0.104381 0.929506
vt 0.103433 0.944820
vt 0.099155 0.927026
vt 0.058146 0.970205
vt 0.049662 0.970794
vt 0.051839 0.970205
vt 0.044619 0.965331
vt 0.069013 0.964505
vt 0.096346 0.907875
vt 0.048229 0.970794
vt 0.024901 0.965331
vt 0.107226 0.911016
vt 0.120672 0.922418
vt 0.026966 0.965331
vt 0.107226 0.927201
vt 0.101053 0.945343
vt 0.087946 0.970322
vt 0.120803 0.903158
vt 0.108309 0.968793
s 1
usemtl Material.003
f 23/1/1 7/2/1 24/3/1
f 1/4/2 37/5/2 5/6/2
f 24/7/3 6/8/3 25/9/3
f 9/10/4 35/11/4 16/12/4
f 28/13/5 19/14/5 29/15/5
f 27/16/6 18/17/7 26/18/8
f 10/19/9 34/20/9 9/21/9
f 29/22/10 17/23/10 27/24/10
f 36/25/11 20/26/12 28/27/12
f 26/18/13 40/28/14 31/29/15
f 22/30/16 23/31/16 30/32/16
f 36/25/11 39/33/17 21/34/18
f 15/35/12 28/27/12 14/36/12
f 13/37/10 27/24/10 12/38/10
f 12/39/6 26/18/8 11/40/6
f 14/41/5 29/15/5 13/42/5
f 3/43/3 25/9/3 2/44/3
f 4/45/1 24/3/1 3/46/1
f 16/47/19 36/48/19 15/49/19
f 11/50/20 33/51/20 10/52/20
f 5/53/21 23/54/21 4/55/21
f 44/56/22 60/57/22 61/58/22
f 73/59/23 1/60/23 43/61/23
f 6/62/24 61/63/24 25/64/24
f 71/65/19 46/66/19 53/67/19
f 56/68/20 64/69/20 65/70/20
f 55/71/25 63/72/10 62/73/26
f 70/74/12 47/75/12 46/76/12
f 54/77/6 65/78/6 63/79/6
f 57/80/9 72/81/27 64/82/9
f 62/73/26 75/83/28 55/71/25
f 60/84/16 59/85/16 66/86/16
f 74/87/29 72/81/30 58/88/31
f 64/82/9 52/89/9 51/90/9
f 63/79/6 50/91/6 49/92/6
f 62/73/26 49/93/10 48/94/10
f 65/70/20 51/95/20 50/96/20
f 25/64/24 41/97/24 2/98/24
f 61/58/22 42/99/22 41/100/22
f 72/101/4 53/102/4 52/103/4
f 69/104/5 48/105/5 47/106/5
f 60/107/32 43/108/32 42/109/32
f 82/110/33 98/111/33 99/112/33
f 112/113/3 76/114/3 80/115/3
f 81/116/2 99/117/2 100/118/2
f 110/119/6 84/120/6 91/121/6
f 94/122/12 103/123/12 104/124/12
f 93/125/34 102/126/4 101/127/35
f 109/128/20 85/129/20 84/130/20
f 92/131/19 104/132/19 102/133/19
f 95/134/5 111/135/36 103/136/5
f 101/127/35 115/137/37 93/125/34
f 98/138/38 97/139/38 105/140/38
f 114/141/17 111/135/39 96/142/40
f 103/136/5 90/143/5 89/144/5
f 102/133/19 88/145/19 87/146/19
f 101/127/35 87/147/4 86/148/4
f 104/124/12 89/149/12 88/150/12
f 100/118/2 78/151/2 77/152/2
f 99/112/33 79/153/33 78/154/33
f 111/155/10 91/156/10 90/157/10
f 108/158/9 86/159/9 85/160/9
f 98/161/41 80/162/41 79/163/41
f 135/164/42 119/165/42 136/166/42
f 76/167/24 148/168/24 118/169/24
f 136/170/23 81/171/23 100/172/23
f 121/173/10 146/174/10 128/175/10
f 139/176/9 131/177/9 140/178/9
f 138/179/19 130/180/43 137/181/44
f 122/182/5 145/183/5 121/184/5
f 140/185/4 129/186/4 138/187/4
f 147/188/45 132/189/20 139/190/20
f 137/181/46 150/191/47 142/192/48
f 134/193/38 135/194/38 141/195/38
f 147/188/45 149/196/29 133/197/49
f 127/198/20 139/190/20 126/199/20
f 125/200/4 138/187/4 124/201/4
f 124/202/19 137/181/44 123/203/19
f 126/204/9 140/178/9 125/205/9
f 116/206/23 100/172/23 77/207/23
f 117/208/42 136/166/42 116/209/42
f 128/210/6 147/211/6 127/212/6
f 123/213/12 144/214/12 122/215/12
f 118/216/50 135/217/50 117/218/50
f 23/1/1 8/219/1 7/2/1
f 1/4/2 38/220/2 37/5/2
f 24/7/3 7/221/3 6/8/3
f 9/10/4 34/222/4 35/11/4
f 28/13/5 20/223/5 19/14/5
f 27/16/6 17/224/6 18/17/7
f 10/19/9 33/225/9 34/20/9
f 29/22/10 19/226/10 17/23/10
f 36/25/11 21/34/18 20/26/12
f 26/18/13 18/17/51 40/28/14
f 22/30/16 8/227/16 23/31/16
f 36/25/11 32/228/17 39/33/17
f 15/35/12 36/25/11 28/27/12
f 13/37/10 29/22/10 27/24/10
f 12/39/6 27/16/6 26/18/8
f 14/41/5 28/13/5 29/15/5
f 3/43/3 24/7/3 25/9/3
f 4/45/1 23/1/1 24/3/1
f 16/47/19 35/229/19 36/48/19
f 11/50/20 26/230/20 33/51/20
f 5/53/21 37/231/21 23/54/21
f 44/56/22 45/232/22 60/57/22
f 73/59/23 38/233/23 1/60/23
f 6/62/24 44/234/24 61/63/24
f 71/65/19 70/235/19 46/66/19
f 56/68/20 57/236/20 64/69/20
f 55/71/25 54/237/10 63/72/10
f 70/74/12 69/238/12 47/75/12
f 54/77/6 56/239/6 65/78/6
f 57/80/9 58/88/52 72/81/27
f 62/73/26 67/240/53 75/83/28
f 60/84/16 45/241/16 59/85/16
f 74/87/29 68/242/29 72/81/30
f 64/82/9 72/81/27 52/89/9
f 63/79/6 65/78/6 50/91/6
f 62/73/26 63/72/10 49/93/10
f 65/70/20 64/69/20 51/95/20
f 25/64/24 61/63/24 41/97/24
f 61/58/22 60/57/22 42/99/22
f 72/101/4 71/243/4 53/102/4
f 69/104/5 62/244/5 48/105/5
f 60/107/32 73/245/32 43/108/32
f 82/110/33 83/246/33 98/111/33
f 112/113/3 113/247/3 76/114/3
f 81/116/2 82/248/2 99/117/2
f 110/119/6 109/249/6 84/120/6
f 94/122/12 95/250/12 103/123/12
f 93/125/34 92/251/4 102/126/4
f 109/128/20 108/252/20 85/129/20
f 92/131/19 94/253/19 104/132/19
f 95/134/5 96/142/54 111/135/36
f 101/127/35 106/254/55 115/137/37
f 98/138/38 83/255/38 97/139/38
f 114/141/17 107/256/17 111/135/39
f 103/136/5 111/135/36 90/143/5
f 102/133/19 104/132/19 88/145/19
f 101/127/35 102/126/4 87/147/4
f 104/124/12 103/123/12 89/149/12
f 100/118/2 99/117/2 78/151/2
f 99/112/33 98/111/33 79/153/33
f 111/155/10 110/257/10 91/156/10
f 108/158/9 101/258/9 86/159/9
f 98/161/41 112/259/41 80/162/41
f 135/164/42 120/260/42 119/165/42
f 76/167/24 113/261/24 148/168/24
f 136/170/23 119/262/23 81/171/23
f 121/173/10 145/263/10 146/174/10
f 139/176/9 132/264/9 131/177/9
f 138/179/19 129/265/19 130/180/43
f 122/182/5 144/266/5 145/183/5
f 140/185/4 131/267/4 129/186/4
f 147/188/45 133/197/49 132/189/20
f 137/181/46 130/180/56 150/191/47
f 134/193/38 120/268/38 135/194/38
f 147/188/45 143/269/29 149/196/29
f 127/198/20 147/188/45 139/190/20
f 125/200/4 140/185/4 138/187/4
f 124/202/19 138/179/19 137/181/44
f 126/204/9 139/176/9 140/178/9
f 116/206/23 136/170/23 100/172/23
f 117/208/42 135/164/42 136/166/42
f 128/210/6 146/270/6 147/211/6
f 123/213/12 137/271/12 144/214/12
f 118/216/50 148/272/50 135/217/50
